<svg width="64" height="64" viewBox="0 0 64 64" fill="none" xmlns="http://www.w3.org/2000/svg">
<path d="M31.2987 0C49.3588 4.74099e-05 63.9999 14.3269 63.9999 32C63.9999 49.6731 49.3588 64 31.2987 64C25.6078 64 20.2571 62.5766 15.5967 60.0745C13.9703 59.2014 14.6725 57 16.5184 57C19.2797 56.9998 21.5184 54.7613 21.5184 52V48C21.5184 45.2387 19.2797 43.0002 16.5184 43H2.0691C1.17408 43 0.368389 42.4528 0.0954597 41.6004C-0.324603 40.2885 0.697074 39 2.07459 39H26.6747C29.4361 39 31.6747 36.7614 31.6747 34V30C31.6747 27.2386 29.4361 25 26.6747 25H2.07459C0.697074 25 -0.324603 23.7115 0.0954597 22.3996C0.368389 21.5472 1.17408 21 2.0691 21H32.7684C35.5298 21 37.7684 18.7614 37.7684 16V12C37.7684 9.23858 35.5298 7 32.7684 7H19.5865C16.7348 7 15.7365 3.71117 18.3638 2.60228C22.3308 0.927932 26.7039 0 31.2987 0Z" fill="#5371FF"/>
</svg>
